{"title":"Chronicles Of Narnia The Dawn Treader.2010 R5.LINE.x264.Feel-Fre","uid":6118246,"size":1087275317,"categoryP":"video","categoryS":"movies","magnet":"?xt=urn:btih:b17b47f34645fa30784addbc95710167a7b65518&amp;dn=Chronicles+Of+Narnia+The+Dawn+Treader.2010+R5.LINE.x264.Feel-Fre&amp;tr=udp%3A%2F%2Ftracker.openbittorrent.com%3A80&amp;tr=udp%3A%2F%2Fopen.demonii.com%3A1337&amp;tr=udp%3A%2F%2Ftracker.coppersurfer.tk%3A6969&amp;tr=udp%3A%2F%2Fexodus.desync.com%3A6969","seeders":0,"leechers":0,"uploader":"neon","files":-1,"time":1295648079,"description":"Genre:Adventure | Family | Fantasy\nLanguage:English\n &lt;a href=&quot; http://www.imdb.com/title/tt0980970/&quot; rel=&quot;nofollow&quot; target=&quot;_NEW&quot;&gt; http://www.imdb.com/title/tt0980970/&lt;/a&gt;\nSource:DvD9 R5/Audio:IMAGiNE Thx.\nSubtitles:Romana\n\n\nFormat : Matroska\nFile size : 1.01 GiB\nDuration : 1h 48mn\nOverall bit rate : 1 337 Kbps\n\n\nVideo\nFormat settings, CABAC : Yes\nFormat settings, ReFrames : 4 frames\nFormat settings, GOP : M=4, N=32\nCodec ID : V_MPEG4/ISO/AVC\nDuration : 1h 48mn\nBit rate : 1 200 Kbps\nWidth : 720 pixels\nHeight : 384 pixels\nDisplay aspect ratio : 1.875\nFrame rate mode : Variable\nFrame rate : 25.000 fps\nColor space : YUV\nChroma subsampling : 4:2:0\nBit depth : 8 bits\nScan type : Progressive\nBits/(Pixel*Frame) : 0.174\nStream size : 914 MiB (88%)\nWriting library : x264\n\n\nAudio\nID : 2\nFormat : MPEG Audio\nFormat version : Version 1\nFormat profile : Layer 3\nCodec ID : A_MPEG/L3\nCodec ID/Hint : MP3\nDuration : 1h 48mn\nBit rate mode : Constant\nBit rate : 128 Kbps\nChannel(s) : 2 channels\nSampling rate : 44.1 KHz\nVideo delay : -40ms\nStream size : 98.9 MiB (10%)\nLanguage : English\n\n\nPlot:\nLucy and Edmund Pevensie return to Narnia with their cousin Eustace where they meet up with Prince Caspian for a trip across the sea aboard the royal ship The Dawn Treader. Along the way they encounter dragons, dwarves, merfolk, and a band of lost warriors before reaching the edge of the world.\n &lt;a href=&quot;\nhttp://shareimage.org/images/dbwc34uyxyjgxvyrzupt.png&quot; rel=&quot;nofollow&quot; target=&quot;_NEW&quot;&gt;\nhttp://shareimage.org/images/dbwc34uyxyjgxvyrzupt.png&lt;/a&gt; &lt;a href=&quot;\nhttp://shareimage.org/images/2mxwrzjdr8zphtmnbef.png&quot; rel=&quot;nofollow&quot; target=&quot;_NEW&quot;&gt;\nhttp://shareimage.org/images/2mxwrzjdr8zphtmnbef.png&lt;/a&gt; &lt;a href=&quot;\nhttp://shareimage.org/images/niyqah645maplrep64h.png&quot; rel=&quot;nofollow&quot; target=&quot;_NEW&quot;&gt;\nhttp://shareimage.org/images/niyqah645maplrep64h.png&lt;/a&gt; &lt;a href=&quot;\nhttp://shareimage.org/images/a7es682oghswcfdlxyi9.png&quot; rel=&quot;nofollow&quot; target=&quot;_NEW&quot;&gt;\nhttp://shareimage.org/images/a7es682oghswcfdlxyi9.png&lt;/a&gt; &lt;a href=&quot;\nhttp://shareimage.org/images/zbck405wllblm6avmzv.png&quot; rel=&quot;nofollow&quot; target=&quot;_NEW&quot;&gt;\nhttp://shareimage.org/images/zbck405wllblm6avmzv.png&lt;/a&gt;","torrent":{"xt":"urn:btih:b17b47f34645fa30784addbc95710167a7b65518","amp;dn":"Chronicles+Of+Narnia+The+Dawn+Treader.2010+R5.LINE.x264.Feel-Fre","amp;tr":["udp%3A%2F%2Ftracker.openbittorrent.com%3A80","udp%3A%2F%2Fopen.demonii.com%3A1337","udp%3A%2F%2Ftracker.coppersurfer.tk%3A6969","udp%3A%2F%2Fexodus.desync.com%3A6969"],"infoHash":"b17b47f34645fa30784addbc95710167a7b65518","infoHashBuffer":{"type":"Buffer","data":[177,123,71,243,70,69,250,48,120,74,221,188,149,113,1,103,167,182,85,24]},"announce":[],"urlList":[]}}